<?xml version="1.0" encoding="UTF-8"?>
<svg width="1009px" height="663px" viewBox="0 0 1009 663" version="1.1" xmlns="http://www.w3.org/2000/svg" xmlns:xlink="http://www.w3.org/1999/xlink">
    <title>NHS_Scotland</title>
    <g id="Page-1" stroke="none" stroke-width="1" fill="none" fill-rule="evenodd">
        <g id="NHS_Scotland" transform="translate(0.000000, 1.000000)" fill="#FFFFFF" fill-rule="nonzero">
            <g id="g3021" transform="translate(680.423784, 0.266428)">
                <path d="M16.5188434,86.2650709 C16.5188434,129.397606 44.9679625,148.66959 104.619341,164.27072 C138.574742,173.447855 158.764439,179.87185 158.764439,201.896974 C158.764439,218.415818 143.163309,230.346094 123.891325,230.346094 C79.8410762,230.346094 32.1199732,203.732401 32.1199732,203.732401 L6.42399464,256.959786 C6.42399464,256.959786 47.721103,289.997472 113.796476,289.997472 C188.131272,289.997472 234.934661,250.535791 234.934661,197.308407 C234.934661,156.011298 206.485542,130.31532 148.66959,113.796476 C112.878763,103.701628 91.771352,100.948487 91.771352,81.6765033 C91.771352,67.9108005 104.619341,57.8159518 126.644466,57.8159518 C152.340444,57.8159518 198.22612,78.0056492 198.22612,78.0056492 L221.168958,23.8605515 C221.168958,23.8605515 179.87185,1.30413041e-13 128.479893,1.30413041e-13 C60.5690923,-0.91771352 16.5188434,36.7085408 16.5188434,86.2650709" id="path3023"></path>
            </g>
            <g id="g3025" transform="translate(115.873937, 1.614582)">
                <path d="M1.83542704,2.75314056 L1.83542704,279.902624 L72.4993681,279.902624 L72.4993681,115.631904 C72.4993681,115.631904 127.562179,211.07411 176.200996,279.902624 C223.922099,279.902624 234.934661,279.902624 234.934661,279.902624 L234.934661,2.75314056 L165.188434,2.75314056 L165.188434,146.834163 C165.188434,146.834163 126.644466,79.8410762 69.7462275,2.75314056 C35.7908273,2.75314056 1.83542704,2.75314056 1.83542704,2.75314056" id="path3027"></path>
            </g>
            <g id="g3029" transform="translate(400.997430, 1.540182)">
                <polygon id="path3031" points="176.200996 3.67085408 176.200996 109.207909 71.5816546 109.207909 71.5816546 3.67085408 0.91771352 3.67085408 0.91771352 279.902624 71.5816546 279.902624 71.5816546 160.599866 176.200996 160.599866 176.200996 279.902624 246.864937 279.902624 246.864937 3.67085408"></polygon>
            </g>
            <g id="g3033" transform="translate(0.908292, 291.126588)" stroke="#FFFFFF">
                <path d="M7.34170816,5.50628112 C7.34170816,5.50628112 22.942838,123.891325 143.163309,144.081023 C172.530142,148.66959 234.016948,143.163309 274.396342,136.739314 C372.591689,121.138185 446.926484,118.385044 507.495577,201.896974 L510.248717,201.896974 C510.248717,201.896974 518.508139,185.378131 507.495577,158.764439 C484.552739,117.467331 406.547089,49.5565301 267.972348,72.4993681 C215.662677,77.0879357 193.637553,80.7587898 165.188434,78.0056492 C55.0628112,69.7462275 35.7908273,9.1771352 34.8731138,5.50628112 L7.34170816,5.50628112" id="path3035"></path>
            </g>
            <g id="g3037" transform="translate(521.077506, 291.126588)">
                <path d="M457.939046,5.50628112 C457.021333,9.1771352 436.831636,69.7462275 325.7883,78.0056492 C298.256894,79.8410762 276.23177,77.0879357 223.004385,72.4993681 C85.3473574,50.4742436 27.5314056,118.385044 10.0948487,155.093585 C-0.91771352,179.87185 5.50628112,202.814688 5.50628112,202.814688 L8.25942168,202.814688 C68.828514,119.302758 118.385044,121.138185 216.580391,136.739314 C256.042072,143.163309 318.446591,148.66959 347.813424,144.081023 C469.869322,123.891325 486.388166,5.50628112 486.388166,5.50628112 L457.939046,5.50628112" id="path3039"></path>
            </g>
            <g id="g3041" transform="translate(100.345302, 533.280858)">
                <path d="M9.1771352,33.9554002 C9.1771352,48.6388166 18.3542704,55.9805247 29.3668326,64.2399464 C38.5439678,71.5816546 53.2273842,78.9233627 53.2273842,91.771352 C53.2273842,101.866201 44.9679625,107.372482 35.7908273,107.372482 C25.6959786,107.372482 19.2719839,102.783914 12.8479893,98.1953466 L4.5885676,111.043336 C12.8479893,118.385044 25.6959786,122.055898 37.6262543,122.055898 C62.4045194,122.055898 76.1702222,105.537055 76.1702222,91.771352 C76.1702222,78.0056492 67.9108005,68.828514 53.2273842,56.8982382 C40.3793949,46.8033895 32.1199732,41.2971084 32.1199732,33.9554002 C32.1199732,27.5314056 37.6262543,22.0251245 46.8033895,22.0251245 C53.2273842,22.0251245 59.6513788,24.778265 65.1576599,28.4491191 L73.4170816,16.5188434 C67.9108005,11.0125622 57.8159518,6.42399464 44.9679625,6.42399464 C23.8605515,7.34170816 9.1771352,19.2719839 9.1771352,33.9554002" id="path3043"></path>
            </g>
            <g id="g3045" transform="translate(183.205660, 536.868204)">
                <path d="M6.42399464,60.5690923 C6.42399464,93.606779 31.2022597,119.302758 69.7462275,119.302758 C80.7587898,119.302758 92.6890655,115.631904 99.1130602,111.961049 L92.6890655,98.1953466 C87.1827844,100.948487 78.9233627,103.701628 70.663941,103.701628 C48.6388166,103.701628 30.2845462,88.1004979 30.2845462,61.4868058 C30.2845462,35.7908273 46.8033895,20.1896974 69.7462275,20.1896974 C78.0056492,20.1896974 87.1827844,23.8605515 92.6890655,26.6136921 L100.030774,12.8479893 C92.6890655,8.25942168 81.6765033,4.5885676 69.7462275,4.5885676 C31.2022597,3.67085408 6.42399464,30.2845462 6.42399464,60.5690923" id="path3047"></path>
            </g>
            <g id="g3049" transform="translate(282.361852, 537.636324)">
                <path d="M8.25942168,58.7336653 C8.25942168,91.771352 29.3668326,118.385044 64.2399464,118.385044 C99.1130602,118.385044 120.220471,92.6890655 120.220471,58.7336653 C120.220471,27.5314056 96.3599196,2.75314056 64.2399464,2.75314056 C32.1199732,2.75314056 8.25942168,27.5314056 8.25942168,58.7336653 M32.1199732,58.7336653 C32.1199732,38.5439678 41.2971084,18.3542704 64.2399464,18.3542704 C87.1827844,18.3542704 96.3599196,37.6262543 96.3599196,58.7336653 C96.3599196,79.8410762 88.1004979,101.866201 64.2399464,101.866201 C40.3793949,101.866201 32.1199732,79.8410762 32.1199732,58.7336653" id="path3051"></path>
            </g>
            <g id="g3053" transform="translate(401.374608, 535.005238)">
                <polygon id="path3055" points="3.67085408 7.34170816 3.67085408 22.0251245 37.6262543 22.0251245 37.6262543 118.385044 59.6513788 118.385044 59.6513788 22.0251245 93.606779 22.0251245 93.606779 7.34170816"></polygon>
            </g>
            <g id="g3057" transform="translate(503.107748, 535.013498)">
                <polygon id="path3059" points="6.42399464 7.34170816 6.42399464 118.385044 73.4170816 118.385044 73.4170816 103.701628 29.3668326 103.701628 29.3668326 7.34170816"></polygon>
            </g>
            <g id="g3061" transform="translate(579.629448, 535.013498)">
                <path d="M48.6388166,7.34170816 L3.67085408,118.385044 L22.942838,118.385044 L33.9554002,88.1004979 L73.4170816,88.1004979 L83.5119303,118.385044 L108.290195,118.385044 L66.0753734,7.34170816 L48.6388166,7.34170816 M55.0628112,29.3668326 L55.0628112,29.3668326 C60.5690923,46.8033895 65.1576599,59.6513788 69.7462275,74.3347951 L39.4616814,74.3347951 C44.9679625,59.6513788 50.4742436,46.8033895 55.0628112,29.3668326" id="path3063"></path>
            </g>
            <g id="g3065" transform="translate(692.510073, 535.013498)">
                <path d="M88.1004979,7.34170816 L88.1004979,86.2650709 L88.1004979,86.2650709 C66.993087,57.8159518 45.885676,32.1199732 24.778265,7.34170816 L8.25942168,7.34170816 L8.25942168,118.385044 L26.6136921,118.385044 L26.6136921,38.5439678 L26.6136921,38.5439678 C47.721103,66.993087 68.828514,92.6890655 89.935925,118.385044 L106.454768,118.385044 L106.454768,7.34170816 L88.1004979,7.34170816" id="path3067"></path>
            </g>
            <g id="g3069" transform="translate(814.205325, 535.005238)">
                <path d="M3.67085408,7.34170816 L3.67085408,118.385044 L40.3793949,118.385044 C79.8410762,118.385044 103.701628,96.3599196 103.701628,59.6513788 C103.701628,33.0376867 88.1004979,7.34170816 43.1325354,7.34170816 L3.67085408,7.34170816 M26.6136921,22.0251245 L43.1325354,22.0251245 C66.993087,22.0251245 79.8410762,36.7085408 79.8410762,59.6513788 C79.8410762,90.8536385 66.0753734,103.701628 40.3793949,103.701628 L26.6136921,103.701628 L26.6136921,22.0251245" id="path3071"></path>
            </g>
        </g>
    </g>
</svg>